<?xml version="1.0" encoding="UTF-8"?>
<svg xmlns="http://www.w3.org/2000/svg" id="Laag_2" viewBox="0 0 396.36 43.62">
  <defs>
    <style>.cls-1{fill:#00ffa7;stroke-width:0px;}</style>
  </defs>
  <g id="Laag_1-2">
    <path class="cls-1" d="m0,31.64l3.03-6.8c2.89,1.91,6.99,3.21,10.76,3.21s5.31-1.07,5.31-2.66c0-5.17-18.55-1.4-18.55-13.51C.56,6.06,5.31,1.31,15.01,1.31c4.24,0,8.62.98,11.84,2.84l-2.84,6.85c-3.12-1.68-6.2-2.52-9.04-2.52-3.87,0-5.27,1.3-5.27,2.94,0,4.99,18.5,1.26,18.5,13.28,0,5.68-4.75,10.53-14.45,10.53-5.36,0-10.67-1.44-13.75-3.59Z"></path>
    <path class="cls-1" d="m30.76,18.27c0-9.93,7.6-16.96,17.94-16.96,6.01,0,10.86,2.19,14.03,6.15l-5.87,5.31c-2.05-2.47-4.57-3.82-7.69-3.82-5.36,0-9.09,3.73-9.09,9.32s3.73,9.32,9.09,9.32c3.12,0,5.64-1.35,7.69-3.82l5.87,5.31c-3.17,3.96-8.02,6.15-14.03,6.15-10.35,0-17.94-7.04-17.94-16.96Z"></path>
    <path class="cls-1" d="m97.87,1.96v32.62h-9.23v-12.72h-12.58v12.72h-9.23V1.96h9.23v12.26h12.58V1.96h9.23Z"></path>
    <path class="cls-1" d="m130.58,27.45v7.13h-26.19V1.96h25.58v7.13h-16.45v5.5h14.49v6.9h-14.49v5.96h17.06Z"></path>
    <path class="cls-1" d="m149.97,25.91h-5.03v8.67h-9.23V1.96h14.91c8.9,0,14.49,4.61,14.49,12.07,0,4.8-2.33,8.34-6.38,10.3l7.04,10.25h-9.88l-5.92-8.67Zm.09-16.68h-5.13v9.55h5.13c3.82,0,5.73-1.77,5.73-4.75s-1.91-4.8-5.73-4.8Z"></path>
    <path class="cls-1" d="m199.6,14.03c0,7.41-5.59,12.02-14.49,12.02h-5.69v8.53h-9.23V1.96h14.91c8.9,0,14.49,4.61,14.49,12.07Zm-9.32,0c0-3.03-1.91-4.8-5.73-4.8h-5.13v9.55h5.13c3.82,0,5.73-1.77,5.73-4.75Z"></path>
    <path class="cls-1" d="m218.71,0h4.15v43.62h-4.15V0Z"></path>
    <path class="cls-1" d="m245.18,1.96h4.66v28.57h17.66v4.05h-22.32V1.96Z"></path>
    <path class="cls-1" d="m296.54,30.52v4.05h-23.67V1.96h23.02v4.05h-18.36v10.02h16.36v3.96h-16.36v10.53h19.01Z"></path>
    <path class="cls-1" d="m326.55,18.08h4.47v12.72c-3.26,2.75-7.78,4.15-12.35,4.15-10.02,0-17.38-7.04-17.38-16.68s7.36-16.68,17.47-16.68c5.17,0,9.55,1.72,12.54,5.03l-2.89,2.89c-2.7-2.61-5.78-3.77-9.46-3.77-7.55,0-13,5.27-13,12.54s5.45,12.54,12.96,12.54c2.75,0,5.31-.61,7.64-2.1v-10.62Z"></path>
    <path class="cls-1" d="m360.71,26.42h-17.33l-3.59,8.16h-4.8l14.77-32.62h4.61l14.82,32.62h-4.89l-3.59-8.16Zm-1.63-3.73l-7.04-15.98-7.04,15.98h14.07Z"></path>
    <path class="cls-1" d="m374.04,1.96h4.66v28.57h17.66v4.05h-22.32V1.96Z"></path>
  </g>
</svg>
